/* XPM */
static char *_b07a7078f4d48909858870afbd84e4emmTaBOdhJqz501su[] = {
/* columns rows colors chars-per-pixel */
"32 32 152 2 ",
"   c None",
".  c black",
"X  c #010100",
"o  c #030101",
"O  c #030200",
"+  c #050401",
"@  c #0D0300",
"#  c #0B0600",
"$  c #0D0400",
"%  c #0F0400",
"&  c #0E0700",
"*  c #0B0B0B",
"=  c #130500",
"-  c #140600",
";  c #180600",
":  c #1A0700",
">  c #100800",
",  c #120A00",
"<  c #150800",
"1  c #140B00",
"2  c #160C00",
"3  c #1E0800",
"4  c #1F0800",
"5  c #1E0B00",
"6  c #1C0F00",
"7  c #16120F",
"8  c #200900",
"9  c #270B00",
"0  c #200D00",
"q  c #290B00",
"w  c #2A0C00",
"e  c #201100",
"r  c #211200",
"t  c #241100",
"y  c #271100",
"u  c #261500",
"i  c #271500",
"p  c #281000",
"a  c #281600",
"s  c #2D1800",
"d  c #2E1800",
"f  c #271A0A",
"g  c #241A0F",
"h  c #301A00",
"j  c #311A00",
"k  c #361C00",
"l  c #371E00",
"z  c #371F03",
"x  c #381E00",
"c  c #391F00",
"v  c #251E17",
"b  c #3A2001",
"n  c #3D2101",
"m  c #3E2100",
"M  c #2F2312",
"N  c #3B2E1D",
"B  c #451200",
"V  c #461300",
"C  c #480C16",
"Z  c #432000",
"A  c #412301",
"S  c #422300",
"D  c #452100",
"F  c #432400",
"G  c #452501",
"H  c #472701",
"J  c #4F2300",
"K  c #492600",
"L  c #492700",
"P  c #4B2700",
"I  c #4B2800",
"U  c #4D2900",
"Y  c #4F2900",
"T  c #4F2A00",
"R  c #532C00",
"E  c #552D00",
"W  c #572E01",
"Q  c #582F00",
"!  c #582F01",
"~  c #5A3000",
"^  c #5B3000",
"/  c #5F3000",
"(  c #5F3200",
")  c #48271A",
"_  c #463319",
"`  c #45331A",
"'  c #673001",
"]  c #653200",
"[  c #663600",
"{  c #6B3900",
"}  c #6C3900",
"|  c #6E3900",
" . c #6C3A01",
".. c #6E3A00",
"X. c #733D00",
"o. c #743C00",
"O. c #743F01",
"+. c #5B1925",
"@. c #6E1F2D",
"#. c #5C2D23",
"$. c #433221",
"%. c #6C202E",
"&. c #7B4100",
"*. c #7A4201",
"=. c #7E4401",
"-. c #7F4401",
";. c #5E4729",
":. c #614621",
">. c #644925",
",. c #6D5029",
"<. c #6E512A",
"1. c #73542C",
"2. c #6E5A3C",
"3. c #773742",
"4. c #8C2739",
"5. c #8C293B",
"6. c #814400",
"7. c #824500",
"8. c #834500",
"9. c #844500",
"0. c #854600",
"q. c #894A01",
"w. c #8C4A01",
"e. c #8F4D01",
"r. c #904D01",
"t. c #914E01",
"y. c #924E01",
"u. c #934F01",
"i. c #9A5301",
"p. c #9B5402",
"a. c #9C5402",
"s. c #9D5502",
"d. c #9F5602",
"f. c #A25702",
"g. c #A55902",
"h. c #A65902",
"j. c #A95B01",
"k. c #AB5C01",
"l. c #AE5D01",
"z. c #856232",
"x. c #A67A3F",
"c. c #A97C3F",
"v. c #D92A4A",
"b. c #DD2A4A",
"n. c #DF2B4C",
"m. c #DE2D4D",
"M. c #C93751",
"N. c #C93852",
"B. c #D13C57",
"V. c #9C794C",
"C. c #D9405C",
"Z. c #BF8B44",
/* pixels */
"                                                                ",
"                                                                ",
"                                                                ",
"                                                                ",
"                          2 s ^ E F s                           ",
"                        $ U w.s.f.t.[ 6                         ",
"                      , ^ e.s.l.l.h.p. .s                       ",
"                      , ' e.l.l.l.l.s.X.j                       ",
"                      $ 6.r.l.l.l.l.s.0.8                       ",
"                      , 0.e.l.l.l.l.s.0.j                       ",
"                      1 0.r.l.l.l.l.s.0.j                       ",
"                      , X.w.s.k.l.f.t.*.j                       ",
"                      2 j  .0.s.s.r.0.F s                       ",
"                c G G l 8 s ^ P P E F 5 l F I b                 ",
"                *.q.-.' B . . l.l.U . q V -.s.-..               ",
"                s  . .t - i.h.l.l.j.h.Z - !  .n                 ",
"                  e . J 0.0.0.s.s.r.0.0.0.% E                   ",
"                    t 0.n 2.0.r.s.0.n ;.0.D .                   ",
"                    i 0.w - 0.r.s.0.w ; 0.P .                   ",
"                    ( 6.X.] U #.3.G Q  .0. ..                   ",
"                    0.R 6.^ + B.B.@.i 0.+ 0..                   ",
"                    0.` . 0 M.5.B.4.. 1 Z.! .                   ",
"                    9 ` c.+.N.%.C.@.M.>.x.: .                   ",
"                      N z.) v.n.m.b.C 1.V..                     ",
"                      M <.g . . . . . :.<.                      ",
"                      % a p , # , # 8 s :                       ",
"                      l p.c .     . c O.0.                      ",
"                      7 e v         * g $.                      ",
"                        . .           . .                       ",
"                                                                ",
"                                                                ",
"                                                                "
};
