/* XPM */
static char *cd6ecfe112f04580cc2cfd75bb27b689PkiNI02Ku7tKGzbj[] = {
/* columns rows colors chars-per-pixel */
"32 32 110 2 ",
"   c None",
".  c black",
"X  c #010000",
"o  c #010100",
"O  c #020100",
"+  c #050200",
"@  c #050300",
"#  c #060300",
"$  c #0C0300",
"%  c #090500",
"&  c #0A0500",
"*  c #0B0600",
"=  c #0C0600",
"-  c #0D0700",
";  c #0F0800",
":  c #180D00",
">  c #190D00",
",  c #1B0E00",
"<  c #1D0F00",
"1  c #1D1000",
"2  c #201100",
"3  c #231000",
"4  c #231300",
"5  c #261500",
"6  c #271500",
"7  c #281200",
"8  c #281500",
"9  c #2B1700",
"0  c #2E1900",
"q  c #2E1901",
"w  c #311A00",
"e  c #301A01",
"r  c #321B00",
"t  c #331C01",
"y  c #341C00",
"u  c #351D00",
"i  c #361D00",
"p  c #371D00",
"a  c #381E00",
"s  c #3A1F00",
"d  c #350911",
"f  c #340E15",
"g  c #272424",
"h  c #282626",
"j  c #292727",
"k  c #412200",
"l  c #472600",
"z  c #482700",
"x  c #4C2500",
"c  c #4C2900",
"v  c #4D2900",
"b  c #552700",
"n  c #512B00",
"m  c #5A2E00",
"M  c #5A3000",
"N  c #5D3100",
"B  c #5D3200",
"V  c #533B1D",
"C  c #613300",
"Z  c #623400",
"A  c #643500",
"S  c #673600",
"D  c #693800",
"F  c #6C3900",
"G  c #6E3A00",
"H  c #733D00",
"J  c #743D00",
"K  c #773D00",
"L  c #753E00",
"P  c #773F00",
"I  c #4F1721",
"U  c #681120",
"Y  c #4F3D25",
"T  c #74222D",
"R  c #794001",
"E  c #7B4100",
"W  c #7B4201",
"Q  c #7C4000",
"!  c #7C4200",
"~  c #7F4200",
"^  c #7E4401",
"/  c #834501",
"(  c #814502",
")  c #854600",
"_  c #844601",
"`  c #864700",
"'  c #864801",
"]  c #894900",
"[  c #8E4C01",
"{  c #904D01",
"}  c #914D01",
"|  c #914E01",
" . c #934F01",
".. c #904E02",
"X. c #944F01",
"o. c #975101",
"O. c #9A5201",
"+. c #9A5402",
"@. c #9D5502",
"#. c #9F5602",
"$. c #A35802",
"%. c #A65902",
"&. c #A85A01",
"*. c #AD5D01",
"=. c #AE5D01",
"-. c #88673C",
";. c #946C35",
":. c #BA3850",
">. c #A47B44",
",. c #D9405C",
/* pixels */
"                                                                ",
"                                                                ",
"                                                                ",
"                                                                ",
"                                                                ",
"                                                                ",
"                                                                ",
"                                                                ",
"                                                                ",
"          ' @.$ ^ @.+..           . + . . . .                   ",
"        , . =.[ - ^ W . # =.=.=.=.=.=.=.=.=.=.=.=..             ",
"        q @.@.` K * + N =.=.=.=.=.=.=.=.=.=.=.=.=.=.=.          ",
"      t @.` Y p ` ~ P $.*.*.=.=.=.=.=.=.=.=.=.=.=.=.=.%.  .     ",
"      ..o.` x m ` ` S =.*.*.=.=.=.=.=.=.=.=.=.=.=.=.=.=.w ..    ",
"    :.T 3 ` ` ` / C 9 =.*.=.=.=.=.=.=.=.=.=.=.=.=.=.$.G G ,     ",
"    ,.f ;.b / D S 5 8 [ $.$.=.=.=.=.=.=.=.=.=.$.=.=.] w *       ",
"    ,.I >.- k 5 5 8 p ` ` ` ....o.=.%.%.O.....` $.X.z 8 +       ",
"    d U -.V 7 5 , t 2 c / ` K M / o.K H z 5 w ` ` P q 5         ",
"        . . . .   . - p n n n 1 c c 5 1 1 1 . p J 9 8 *         ",
"                  * ` * a p 2 . . . .     p a w a a 4           ",
"                  - W h ` M .             ~ C p a p             ",
"                    .   / / .             R ` H ] -             ",
"                        . .               . . h g               ",
"                                                                ",
"                                                                ",
"                                                                ",
"                                                                ",
"                                                                ",
"                                                                ",
"                                                                ",
"                                                                ",
"                                                                "
};
