/* XPM */
static char *bd89222da77c4e1bfbffc8c45dcaf56c6uEVGIKJSvCoSra6[] = {
/* columns rows colors chars-per-pixel */
"32 32 5 1 ",
"  c None",
". c #161616",
"X c #B68B63",
"o c #CFA47C",
"O c #EEC39A",
/* pixels */
"                                ",
"                                ",
"               XX               ",
"              XOOO              ",
"              OOOO              ",
"              OOOO              ",
"               OX               ",
"              OOOO              ",
"             OOOOOO             ",
"            OOOOOOOO            ",
"            OOOOoOOO            ",
"           OOOooOooOO           ",
"           OOOOOOOOOO           ",
"           OOOOoOoOOO           ",
"          OO OoOOOo OO          ",
"          OO OoOoOo OO          ",
"          OO ...... OO          ",
"          O  ......  O          ",
"          .  OO..OO  .          ",
"          ..OOO  OOO..          ",
"          ..OOO  OOO..          ",
"            OO    OO            ",
"            OO    OO            ",
"           OO      OO           ",
"           OO      OO           ",
"           OO      OO           ",
"           .        .           ",
"           .        .           ",
"          ..        ..          ",
"         ...        ...         ",
"                                ",
"                                "
};
