/* XPM */
static char *result[] = {
/* columns rows colors chars-per-pixel */
"32 32 137 2 ",
"   c #030200",
".  c #040100",
"X  c #070400",
"o  c gray2",
"O  c #090600",
"+  c #0A0600",
"@  c #0D0A03",
"#  c #110900",
"$  c #150A00",
"%  c #140B00",
"&  c #160C00",
"*  c #130D07",
"=  c #190D00",
"-  c #1B0E00",
";  c #1B0F00",
":  c #1C1000",
">  c #1F1100",
",  c #16110D",
"<  c #201100",
"1  c #261400",
"2  c #271500",
"3  c #201305",
"4  c #281200",
"5  c #2E1100",
"6  c #281500",
"7  c #281600",
"8  c #291600",
"9  c #2A1700",
"0  c #2B1700",
"q  c #2D1500",
"w  c #2D1600",
"e  c #20130C",
"r  c #27190A",
"t  c #2F1E0B",
"y  c #311A00",
"u  c #331C00",
"i  c #341C00",
"p  c #351D00",
"a  c #371D00",
"s  c #381D00",
"d  c #381E00",
"f  c #391F00",
"g  c #3B1F00",
"h  c #3B1F01",
"j  c #271313",
"k  c #211810",
"l  c #3D2101",
"z  c #3E2201",
"x  c #3F2201",
"c  c #33200C",
"v  c #39240D",
"b  c #531B1F",
"n  c #402200",
"m  c #442400",
"M  c #442401",
"N  c #462500",
"B  c #482702",
"V  c #4D2900",
"C  c #43280B",
"Z  c #48290A",
"A  c #512B00",
"S  c #532B00",
"D  c #542900",
"F  c #502C01",
"G  c #522C00",
"H  c #542C00",
"J  c #552D00",
"K  c #562E00",
"L  c #5A3000",
"P  c #5D3100",
"I  c #5D3201",
"U  c #5F3501",
"Y  c #633400",
"T  c #643500",
"R  c #663400",
"E  c #653601",
"W  c #663601",
"Q  c #693600",
"!  c #683700",
"~  c #693800",
"^  c #6B3900",
"/  c #6B3A01",
"(  c #6D3900",
")  c #703900",
"_  c #743D00",
"`  c #773D00",
"'  c #743F01",
"]  c #773F00",
"[  c #701929",
"{  c #562020",
"}  c #764004",
"|  c #784101",
" . c #7B4000",
".. c #7A4100",
"X. c #7C4100",
"o. c #7D4200",
"O. c #7F4300",
"+. c #7F4502",
"@. c #574630",
"#. c #694C27",
"$. c #7C5C32",
"%. c #814400",
"&. c #824400",
"*. c #834500",
"=. c #834601",
"-. c #844500",
";. c #844600",
":. c #854600",
">. c #894900",
",. c #8B4A01",
"<. c #8B4B01",
"1. c #8D4B01",
"2. c #8E4B01",
"3. c #924E01",
"4. c #965001",
"5. c #965102",
"6. c #995202",
"7. c #9A5302",
"8. c #9B5402",
"9. c #9C5401",
"0. c #9E5602",
"q. c #A05501",
"w. c #A25601",
"e. c #A25702",
"r. c #A55801",
"t. c #A55901",
"y. c #A55902",
"u. c #A65902",
"i. c #A85A01",
"p. c #A95B01",
"a. c #AB5B01",
"s. c #AC5C01",
"d. c #AD5D01",
"f. c #AE5D01",
"g. c #BF3851",
"h. c #C33A53",
"j. c None",
/* pixels */
"j.j.j.j.j.j.j.j.j.j.j.j.j.j.j.j.j.j.j.j.j.j.j.j.j.j.j.j.j.j.j.j.",
"j.j.j.j.j.j.j.j.j.j.j.j.j.j.j.j.j.j.j.j.j.j.j.j.j.j.j.j.j.j.j.j.",
"j.j.j.j.j.j.j.j.j.j.j.j.j.j.j.j.j.j.j.j.j.j.j.j.j.j.j.j.j.j.j.j.",
"j.j.j.j.j.j.j.j.j.j.j.j.j.j.j.j.j.j.j.j.j.j.j.j.j.j.j.j.j.j.j.j.",
"j.j.j.j.j.j.j.j.j.j.j.j.j.j.j.j.j.j.j.j.j.j.j.j.j.j.j.j.j.j.j.j.",
"j.j.j.j.j.j.j.j.j.j.j.j.j.j.j.j.j.j.j.j.j.j.j.j.j.j.j.j.j.j.j.j.",
"j.j.j.j.j.j.j.j.j.j.j.j.j.j.j.j.j.j.j.j.j.j.j.j.j.j.j.j.j.j.j.j.",
"j.j.j.j.j.j.j.j.j.j.j.j.j.j.j.j.j.j.j.j.j.j.j.j.j.j.j.j.j.j.j.j.",
"j.j.j.j.j.j.j.j.j.j.j.j.j.j.j.j.j.j.j.j.j.j.j.j.j.j.j.j.j.j.j.j.",
"j.j.j.j.j.j.j.j.j.j.j.j.j.j.j.j.j.j.j.j.j.j.j.j.j.j.j.j.j.j.j.j.",
"j.j.j.j.j.j.j.j.j.j.j.j.j.j.j.j.j.j.j.j.j.j.j.j.j.j.j.j.j.j.j.j.",
"j.j.j.j.j.j.j.j.j.j.j.j.j.j.j.j.j.j.j.j.j.j.j.j.j.j.j.j.j.j.j.j.",
"j.j.j.j.j.j.j.j.j.j.j.j.j.j.j.j.j.j.j.j.j.j.j.j.j.j.j.j.j.j.j.j.",
"j.j.j.j.j.j.j.j.j.j.j.j.j.j.j.j.j.j.j.j.z l 4 2 x j.j.j.j.j.j.j.",
"j.j.j.j.j.j.j.9 W 1.f.f.f.f.r.E E W s % | ' 5 E M h j.j.j.j.j.j.",
"j.j.j.j.j.< =.f.f.f.f.f.f.f.f.f.f.f.s.R w q ) <.9.U j.j.j.j.j.j.",
"j.j.j.6 : q.f.f.f.f.f.f.f.f.f.f.f.f.f.w.Q ` &.@.( 4.F j.j.j.j.j.",
"j.j.j.^ I y.f.f.f.f.f.f.f.f.f.f.f.f.f.a.~ *.-.D  .>.+.j j.j.j.j.",
"j.j.j.+ i / e.i.d.d.d.d.d.p.u.t.t.t.0.8.n V %.-.:.Z { h.j.j.j.j.",
"j.j.j.j.# d ..2.2.2.,.2.3.7.7.5.7.7.6.o.y 2 d G S #.e g.j.j.j.j.",
"j.j.j.j.j.2 V -.:.L g L ] X.:.! ] ;.:.Y y 0 > 2 3 $.b [ j.j.j.j.",
"j.j.j.j.j.; 7 H P = = - 2 y A m a K J u & X j.X . * j.j.j.j.j.j.",
"j.j.j.j.j.j.8 a d < 9 j.j.      O i p 1 o.$ j.j.j.j.j.j.j.j.j.j.",
"j.j.j.j.j.j.j.f T N _ j.j.j.j.j.j.B O., C @ j.j.j.j.j.j.j.j.j.j.",
"j.j.j.j.j.j.j.v } r t j.j.j.j.j.j.k c j.j.j.j.j.j.j.j.j.j.j.j.j.",
"j.j.j.j.j.j.j.j.o j.j.j.j.j.j.j.j.j.j.j.j.j.j.j.j.j.j.j.j.j.j.j.",
"j.j.j.j.j.j.j.j.j.j.j.j.j.j.j.j.j.j.j.j.j.j.j.j.j.j.j.j.j.j.j.j.",
"j.j.j.j.j.j.j.j.j.j.j.j.j.j.j.j.j.j.j.j.j.j.j.j.j.j.j.j.j.j.j.j.",
"j.j.j.j.j.j.j.j.j.j.j.j.j.j.j.j.j.j.j.j.j.j.j.j.j.j.j.j.j.j.j.j.",
"j.j.j.j.j.j.j.j.j.j.j.j.j.j.j.j.j.j.j.j.j.j.j.j.j.j.j.j.j.j.j.j.",
"j.j.j.j.j.j.j.j.j.j.j.j.j.j.j.j.j.j.j.j.j.j.j.j.j.j.j.j.j.j.j.j.",
"j.j.j.j.j.j.j.j.j.j.j.j.j.j.j.j.j.j.j.j.j.j.j.j.j.j.j.j.j.j.j.j."
};
