/* XPM */
static char *result[] = {
/* columns rows colors chars-per-pixel */
"32 32 162 2 ",
"   c black",
".  c #050200",
"X  c #040300",
"o  c #070400",
"O  c #0B0600",
"+  c #110900",
"@  c #110A00",
"#  c #140A00",
"$  c #150B00",
"%  c #1C0F00",
"&  c #1D1000",
"*  c #1F1100",
"=  c #191009",
"-  c #240E00",
";  c #201200",
":  c #211200",
">  c #221200",
",  c #241300",
"<  c #241400",
"1  c #261400",
"2  c #261500",
"3  c #271500",
"4  c #281500",
"5  c #291500",
"6  c #281600",
"7  c #291600",
"8  c #2A1600",
"9  c #2B1700",
"0  c #2C1700",
"q  c #2D1700",
"w  c #2C1800",
"e  c #2D1800",
"r  c #2D1900",
"t  c #2E1800",
"y  c #2E1900",
"u  c #2E1A00",
"i  c #2C1A06",
"p  c #291A0D",
"a  c #301A00",
"s  c #311A00",
"d  c #331B00",
"f  c #341C00",
"g  c #341D00",
"h  c #361D00",
"j  c #371D00",
"k  c #381E00",
"l  c #3B1F00",
"z  c #3B2000",
"x  c #3E2100",
"c  c #3F250B",
"v  c #38220F",
"b  c #2F2011",
"n  c #362212",
"m  c #402200",
"M  c #412300",
"N  c #482700",
"B  c #4C2800",
"V  c #4D2900",
"C  c #4E2900",
"Z  c #4F2900",
"A  c #482A0A",
"S  c #502B00",
"D  c #512B00",
"F  c #512C01",
"G  c #542C00",
"H  c #562E00",
"J  c #572E00",
"K  c #572F00",
"L  c #582F00",
"P  c #592F00",
"I  c #5C3000",
"U  c #5C3100",
"Y  c #5D3100",
"T  c #5C3201",
"R  c #5D3301",
"E  c #5F3200",
"W  c #5E380D",
"Q  c #603300",
"!  c #603401",
"~  c #643500",
"^  c #653600",
"/  c #643601",
"(  c #653601",
")  c #673700",
"_  c #663701",
"`  c #673701",
"'  c #693600",
"]  c #693700",
"[  c #683801",
"{  c #6B3900",
"}  c #6A3901",
"|  c #6D3A00",
" . c #663C0E",
".. c #713C00",
"X. c #713D01",
"o. c #723C00",
"O. c #733C00",
"+. c #733D00",
"@. c #723E01",
"#. c #753D01",
"$. c #743E00",
"%. c #753E00",
"&. c #773E00",
"*. c #773F00",
"=. c #783F00",
"-. c #774000",
";. c #764001",
":. c #784000",
">. c #794101",
",. c #7B4100",
"<. c #7A4101",
"1. c #7D4200",
"2. c #804400",
"3. c #814400",
"4. c #804401",
"5. c #824400",
"6. c #834601",
"7. c #844600",
"8. c #854600",
"9. c #844700",
"0. c #874800",
"q. c #874801",
"w. c #8A4901",
"e. c #8B4B01",
"r. c #8C4B01",
"t. c #8E4B01",
"y. c #8D4C01",
"u. c #8E4C01",
"i. c #924E01",
"p. c #944F01",
"a. c #954F01",
"s. c #945001",
"d. c #975101",
"f. c #945002",
"g. c #955102",
"h. c #985101",
"j. c #995201",
"k. c #9A5301",
"l. c #995202",
"z. c #995302",
"x. c #9A5302",
"c. c #9B5302",
"v. c #9B5402",
"b. c #9C5401",
"n. c #9D5502",
"m. c #9E5502",
"M. c #9F5602",
"N. c #A35701",
"B. c #A25702",
"V. c #A35801",
"C. c #A45801",
"Z. c #A65901",
"A. c #A75A01",
"S. c #A65902",
"D. c #A95A01",
"F. c #A95B01",
"G. c #AA5B01",
"H. c #AB5C01",
"J. c #AC5C01",
"K. c #AD5D01",
"L. c #AE5D01",
"P. c None",
/* pixels */
"P.P.P.P.P.P.P.P.P.P.P.P.P.P.P.P.P.P.P.P.P.P.P.P.P.P.P.P.P.P.P.P.",
"P.P.P.P.P.P.P.P.P.P.P.P.P.P.P.P.P.P.P.P.P.P.P.P.P.P.P.P.P.P.P.P.",
"P.P.P.P.P.P.P.P.P.P.P.P.P.P.P.P.P.P.P.P.P.P.P.P.P.P.P.P.P.P.P.P.",
"P.P.P.P.P.P.P.P.P.    P.  P.P.P.P.P.P.P.P.    P.P.P.P.P.P.P.P.P.",
"P.P.P.P.P.P.P.P.* / _ ` ( r P.P.x P.P.> ` _ / R P.P.P.P.P.P.P.P.",
"P.P.P.P.P.P.P.P.% >.x.n.n.;...:.%.-.$._ n.n.g.! P.P.P.P.P.P.P.P.",
"P.P.P.P.P.P.P.P.@ M } z.n.F.L.L.L.L.K.F.z.[ T u P.P.P.P.P.P.P.P.",
"P.P.P.P.P.P.P.P.P.P.% r.v.Z.G.J.L.J.F.C.y.8 + P.P.P.P.P.P.P.P.P.",
"P.P.P.P.P.P.P.P.P.P.o =.i.x.M.S.G.Z.n.d.5.Y P.P.P.P.P.P.P.P.P.P.",
"P.P.P.P.P.P.P.P.P.P.. ) 2.u.d.x.x.l.f.t.1.H P.P.P.P.P.P.P.P.P.P.",
"P.P.P.P.P.P.P.P.P.P.X V +.3.8.8.8.8.7.1.H q P.P.P.P.P.P.P.P.P.P.",
"P.P.P.P.P.P.P.P.P.P.. 3 e D *.8.8.1.] C 9 3 P.P.P.P.P.P.P.P.P.P.",
"P.P.P.P.P.P.P.P.P.P.. < 3 e z J ^ D d e 4 t P.P.P.P.P.P.P.P.P.P.",
"P.P.P.P.P.P.P.P.P.P.P.& 1 3 7 s h a 3 6 e $ P.P.P.P.P.P.P.P.P.P.",
"P.P.P.P.P.P.P.P.P.P.P.O 5 e B N h z m e 0 P.P.P.P.P.P.P.P.P.P.P.",
"P.P.P.P.P.P.P.P.P.P.P.P.4 m | <.@.X.Q 0 # P.P.P.P.P.P.P.P.P.P.P.",
"P.P.P.P.P.P.P.P.P.P.P.P.4 G ,.p.n.s.o.j # P.P.P.P.P.P.P.P.P.P.P.",
"P.P.P.P.P.P.P.P.P.P.P.  l { 0.k.B.j.4.P w P.P.P.P.P.P.P.P.P.P.P.",
"P.P.P.P.P.P.P.P.P.P.P.  U 9.k.D.H.V.a.%.s P.P.P.P.P.P.P.P.P.P.P.",
"P.P.P.P.P.P.P.P.P.P.P.  ~ w.N.L.L.H.b.&.a P.P.P.P.P.P.P.P.P.P.P.",
"P.P.P.P.P.P.P.P.P.P.P.  I q.N.L.L.H.b.%.a P.P.P.P.P.P.P.P.P.P.P.",
"P.P.P.P.P.P.P.P.P.P.P.  - #.N.L.L.H.h.' t P.P.P.P.P.P.P.P.P.P.P.",
"P.P.P.P.P.P.P.P.P.P.P.  Z 6.m.G.L.F.h.O.s P.P.P.P.P.P.P.P.P.P.P.",
"P.P.P.P.P.P.P.P.P.P.P.  4 E e.V.A.c.4.B $ P.P.P.P.P.P.P.P.P.P.P.",
"P.P.P.P.P.P.P.P.P.P.P.  7 , M K L V f ; 9 P.P.P.P.P.P.P.P.P.P.P.",
"P.P.P.P.P.P.P.P.P.P.P.  y S a : P.g x F k P.P.P.P.P.P.P.P.P.P.P.",
"P.P.P.P.P.P.P.P.P.P.P.  c  .i P.P.P.A W 2 P.P.P.P.P.P.P.P.P.P.P.",
"P.P.P.P.P.P.P.P.P.P.P.P.v n = P.P.P.p b $ P.P.P.P.P.P.P.P.P.P.P.",
"P.P.P.P.P.P.P.P.P.P.P.P.P.  P.P.P.P.P.P.P.P.P.P.P.P.P.P.P.P.P.P.",
"P.P.P.P.P.P.P.P.P.P.P.P.P.P.P.P.P.P.P.P.P.P.P.P.P.P.P.P.P.P.P.P.",
"P.P.P.P.P.P.P.P.P.P.P.P.P.P.P.P.P.P.P.P.P.P.P.P.P.P.P.P.P.P.P.P.",
"P.P.P.P.P.P.P.P.P.P.P.P.P.P.P.P.P.P.P.P.P.P.P.P.P.P.P.P.P.P.P.P."
};
