/* XPM */
static char * D:\linux\42\so_long\ronflex\right_l_xpm[] = {
"30 30 10 1",
" 	c None",
".	c #000000",
"+	c #406068",
"@	c #788890",
"#	c #D8A860",
"$	c #F8E098",
"%	c #B87020",
"&	c #703800",
"*	c #F8F8F8",
"=	c #A8B0B8",
"              ..              ",
"             .+@.             ",
"             .+@.             ",
"            .++@@.            ",
"           .++@@@+..          ",
"          .+@@@@@@@+.         ",
"         .++@@..@@@@@.        ",
"         .+@@.@+.@@@++.       ",
"        .++@.+@@+@+#$#.       ",
"        .++@.+@@@@+$$$#.      ",
"        .++@++@@@@#$$%$.      ",
"        .++@@++@@@$$&$$.      ",
"        ..+@@@@@@@#$$$&.      ",
"       ....+@@@@@@+$$*#.      ",
"       .++++@@@@@@@#$#.       ",
"      .+++++@@@@++++&&#.      ",
"      .+++.+@@@@@+++##$$.     ",
"     .+++.+@@@@++@+#$$$$$.    ",
"     .++.+@@@@+.+@@$$$$$$.    ",
"     .+.+@@@@+.+@@@#$$$$#.    ",
"     .+=+@@@+.@@@@@##$$##.    ",
"     .+.++++.@@@@@@#####.     ",
"      .+*+..@@@@@@@@####.     ",
"      .++*++@@@@@@@@###.      ",
"       .++++++++@@@+++..      ",
"       ..++++++++++++..=.     ",
"       .%...+++++++..%*.      ",
"        .%%@.......%%*.       ",
"         ...  ...%%##.        ",
"                .%%..         "};