/* XPM */
static char *f750b9f55e784db8f76b3088135d1b2bsfIfd2fvzYSGz2AG[] = {
/* columns rows colors chars-per-pixel */
"32 32 182 2 ",
"   c None",
".  c #42240F",
"X  c #422311",
"o  c #442310",
"O  c #462411",
"+  c #462511",
"@  c #472511",
"#  c #452512",
"$  c #472713",
"%  c #482511",
"&  c #492512",
"*  c #492712",
"=  c #4A2712",
"-  c #4C2712",
";  c #492811",
":  c #4A2813",
">  c #4B2813",
",  c #4C2813",
"<  c #4F2913",
"1  c #4A2A14",
"2  c #4B2916",
"3  c #4C2A15",
"4  c #4E2A14",
"5  c #4D2B16",
"6  c #4D2B17",
"7  c #4E2B16",
"8  c #522D15",
"9  c #512D16",
"0  c #502E19",
"q  c #512E19",
"w  c #553017",
"e  c #53301A",
"r  c #57331B",
"t  c #53311C",
"y  c #54311C",
"u  c #5C371B",
"i  c #58341C",
"p  c #5B361C",
"a  c #5A371E",
"s  c #5F3D23",
"d  c #583F2C",
"f  c #603F25",
"g  c #603F28",
"h  c #58402E",
"j  c #5E412D",
"k  c #5A4230",
"l  c #5A4330",
"z  c #5A4432",
"x  c #654023",
"c  c #614226",
"v  c #624327",
"b  c #614128",
"n  c #624128",
"m  c #604329",
"M  c #634328",
"N  c #624229",
"B  c #62432A",
"V  c #634529",
"C  c #654428",
"Z  c #654529",
"A  c #674428",
"S  c #664529",
"D  c #65462C",
"F  c #684529",
"G  c #65482B",
"H  c #6A492B",
"J  c #68482E",
"K  c #694B2F",
"L  c #6C4B2F",
"P  c #684C2F",
"I  c #6D4D2E",
"U  c #654C37",
"Y  c #6A4F31",
"T  c #6B4E32",
"R  c #6B4F32",
"E  c #624B38",
"W  c #624D3A",
"Q  c #634D3B",
"!  c #704F30",
"~  c #6B5032",
"^  c #6C5033",
"/  c #6F5335",
"(  c #69503B",
")  c #68523E",
"_  c #6B543D",
"`  c #715132",
"'  c #725335",
"]  c #735236",
"[  c #705437",
"{  c #735436",
"}  c #715638",
"|  c #725638",
" . c #735739",
".. c #745538",
"X. c #755638",
"o. c #765639",
"O. c #75573A",
"+. c #76573B",
"@. c #73583A",
"#. c #745839",
"$. c #765839",
"%. c #775B3D",
"&. c #775C3D",
"*. c #775D3E",
"=. c #775E3F",
"-. c #785A3A",
";. c #7A5A3B",
":. c #785C3D",
">. c #7A5D3E",
",. c #785E3F",
"<. c #795E3F",
"1. c #675441",
"2. c #675442",
"3. c #685442",
"4. c #6A5642",
"5. c #6B5745",
"6. c #6E5841",
"7. c #6C5947",
"8. c #6E5D4A",
"9. c #765B45",
"0. c #705C47",
"q. c #705D48",
"w. c #705F4C",
"e. c #715F4C",
"r. c #715F4D",
"t. c #7A6040",
"y. c #7B6040",
"u. c #7B6041",
"i. c #7D6040",
"p. c #7D6143",
"a. c #7C6243",
"s. c #7E6343",
"d. c #7D6344",
"f. c #7F6244",
"g. c #7F6444",
"h. c #7E6445",
"j. c #7F6445",
"k. c #7E6546",
"l. c #74604A",
"z. c #74614C",
"x. c #76644F",
"c. c #79624B",
"v. c #796551",
"b. c #7C6852",
"n. c #796854",
"m. c #7C6B58",
"M. c #7F6F5C",
"N. c #816746",
"B. c #806648",
"V. c #816748",
"C. c #826849",
"Z. c #82694A",
"A. c #836A4B",
"S. c #846C4C",
"D. c #856C4D",
"F. c #866C4D",
"G. c #896F4E",
"H. c #896F50",
"J. c #806D59",
"K. c #816E59",
"L. c #8A7151",
"P. c #8B7151",
"I. c #8B7252",
"U. c #8B7253",
"Y. c #8F7655",
"T. c #8D7557",
"R. c #8E7756",
"E. c #8E7657",
"W. c #81705D",
"Q. c #85735E",
"!. c #87735E",
"~. c #8E7658",
"^. c #907858",
"/. c #957C5A",
"(. c #937B5E",
"). c #927C5E",
"_. c #947C5C",
"`. c #967F5E",
"'. c #977F5F",
"]. c #947D60",
"[. c #98825E",
"{. c #978061",
/* pixels */
"                                                                ",
"                                                                ",
"                                                                ",
"                                                                ",
"                                                                ",
"                  L 0                     J ]                   ",
"                X.g.3                     N G.+.                ",
"                T.Z.6                     N T.I.                ",
"              +.I.S.3                     f '.^.+.              ",
"              +.~.~ 1                     f N.'.+.              ",
"              +.T.~ 1                     N N./.'               ",
"              ].S.Y ;                     N N.{./.              ",
"              (.Z.T =                     N N.].T.              ",
"              ).p.U =                     f m./.I.              ",
"              K.v.i =                     x F Q.Q.              ",
"              l.6.S -                     p X.c.b.              ",
"              S v Y 3                     p N.;.!               ",
"              V.>.S j                     9.>.I.A.              ",
"              Z.&.V k                     x.>.I.N.              ",
"              g.#.N k                     e.-.I.>.              ",
"              p.#.v 6                     w $.S.>.              ",
"              a.[ v =                     9 ] A.>.              ",
"              t./ s $                     3 D N.$.              ",
"              &.J E $                     ; ) >.}               ",
"              W.v.9 $                     2 i n.M.              ",
"              0._ a d                     U F _ q.              ",
"              H F y h                     Q r ' I               ",
"              &.T 0 o                     $ 0 >.}               ",
"              3 < z .                     $ 8.8 <               ",
"              z.1.h                         3.7.3.              ",
"              r.1.X                         $ 7.3.              ",
"              r.1.X                         $ 5.3.              "
};
