/* XPM */
static char *_efa30513ba94df8d72289866a535c5cMzTyWhEPTbVG4HDx[] = {
/* columns rows colors chars-per-pixel */
"32 32 59 1 ",
"  c None",
". c #301E11",
"X c #3A2516",
"o c #4D2712",
"O c #4E2812",
"+ c #522B15",
"@ c #542F18",
"# c #4C311B",
"$ c #57311A",
"% c #5A351C",
"& c #5F381F",
"* c #613B1F",
"= c #573A24",
"- c #5D3A22",
"; c #5F3F29",
": c #623D23",
"> c #644226",
", c #64442B",
"< c #67482D",
"1 c #6A4A2D",
"2 c #664831",
"3 c #6C4E31",
"4 c #644E3A",
"5 c #684F3A",
"6 c #6F5234",
"7 c #66513D",
"8 c #69523D",
"9 c #715536",
"0 c #735738",
"q c #765A3B",
"w c #795D3E",
"e c #7B603F",
"r c #675340",
"t c #695642",
"y c #6C5945",
"u c #6D5C49",
"i c #715C45",
"p c #7A5F40",
"a c #735F49",
"s c #7D6241",
"d c #74624C",
"f c #79654E",
"g c #756451",
"h c #796752",
"j c #7A6954",
"k c #7C6D5C",
"l c #7E7060",
"z c #816645",
"x c #856A4A",
"c c #896F4E",
"v c #896F50",
"b c #8C7454",
"n c #85735F",
"m c #907857",
"M c #907758",
"N c #8A7764",
"B c #8B7964",
"V c #8E7D6B",
"C c #9B8567",
/* pixels */
"                                ",
"                                ",
"                                ",
"             wwweww             ",
"         1zm*bczxxx*q3:         ",
"        zxCC*qqzwww*bb03        ",
"      Xsmzzz*swzwes>qszz3.      ",
"      =bw0xz>ssswss1sewsw$      ",
"      xqqzzs1eesese<eswwwp      ",
"     ,sqqszz<sezssz1pesepz$     ",
"     :wqqzsq1ssszzs10swewp@     ",
"     %%*:>:B2ppszss1N-;-:%+     ",
"     $idfjjvNqpszswCjhdday+     ",
"     $:,<22h:ppsxse&h,,,,;+     ",
"     @,<231%6pwsxee1%111<<+     ",
"     @000wpw3pppxee1eew000+     ",
"     @009seq3qesxse3eww006+     ",
"     @009sqq3qesxee3ewq900+     ",
"     +060sqq3q3&*3e9wqq060O     ",
"     +009qq03q<fj<e6qwq666#     ",
"     +009s893q;dd>q6qqq666+     ",
"     +609s993q=88=01qqq666O     ",
"     O$%&--n399,>603n&-%%$O     ",
"     Oidgjjfd99qq00hffddduO     ",
"     O888ydf@999000+di88t5O     ",
"     O:>,,<@>999066>$>,,>:o     ",
"     O666696>999696;0qq313o     ",
"     +,<<122%<<,,<<-332,>>o     ",
"     Oddgghgjgklllkjgggggho     ",
"     Orrttyyuuugduuuytyr47o     ",
"     O77rryyyuygguuuyytr44o     ",
"     o4474r7rryyyyy8tt4474o     "
};
