/* XPM */
static char *_d1c438236db4cdcb1d7d611131b321dyu5EJOvrPfoP7dHP[] = {
/* columns rows colors chars-per-pixel */
"32 32 5 1 ",
"  c #4E6618",
". c #4C611F",
"X c #526626",
"o c #587024",
"O c #60792A",
/* pixels */
"oXXXXOoooo...... ooOOooXXX    OO",
"OoooO..OOOOOOOOoo..ooX  ..OoooO ",
"oooOOOO...oOoooo.ooOXooooo.Xoo.o",
"ooOO...OOOOooOOoXoOXOoOooOo O o.",
"..oOOOooooooooooOXOoo..ooXoooo O",
"OOoooXXXooXooXXOXXX.XooXo..OOOO ",
"OOOOooooooooOXOOOOOooooooooXXXXX",
"OOo..ooXXXooooOOooXXXoXXXooooooo",
"OOoXXXoooOOOooooooooooooooooOOOo",
"ooOOOOooo.oooOOOo....OOOOOoooooO",
"ooooooooooo....O  oooooo...Oo  o",
"ooXXXXOOOOooXXXXooOoo..oo.oo  oo",
"OooooXXXooOOooooooOOOOOOOoo  OOo",
"OOOOOooooooooooo  ooooo   oooo o",
"OOooooXXXXOOOOOoooOOOOooooOOOOoo",
"ooOOOOOOOOOOooooooooo    ooooooo",
" ooOOooXXXOOOOOOoXXXXOoooo..ooo.",
"o..ooX  ..OoooOoOoooO..OOOOOOOOo",
".ooOXooooo.XXooooooOOOO...oOoooo",
"XoOXOoOooOooooooooOO...OOOOooOOo",
"OXOoo.o..Xoooo O..oOOOoooooooooo",
"XXX.ooooo..OOOO OOoooXXXooXXooXO",
"OOOooooooooXXXXXOOOOooooooooOXOO",
"ooXXXoXXXXooooooooo..oooXXooooOO",
"ooooooooooooOOOoOOoXXXoooOOOoooo",
"o....OOOOOoooooOooOOOOooo.oooOOO",
"  ooooooo..Oo  oooooooooooo..ooO",
"ooOoo..ooooo  ooooXXooOOOOooXXoX",
"ooOOOOOOOoo  OOoOooooXXXooOOoooo",
"  ooooo   oooo oOOOOOoooooooOOOO",
"oo     oooOOOOooXOooooXXXXOOOOOo",
"ooooo         ooXoOOXXOOOOOOooXX"
};
