/* XPM */
static char *_75390094e5f40f3a182b9e132a7a2eeLU9YQPt4jymyDAIs[] = {
/* columns rows colors chars-per-pixel */
"32 32 2 1 ",
"  c #68B671",
". c #72C37A",
/* pixels */
"................................",
"................................",
"................................",
"................................",
"... ............................",
"... ... ........................",
"...  .  ........................",
".... . .........................",
"................................",
"................................",
"................................",
"................................",
"................................",
"................................",
"................................",
"................................",
"................................",
".........  ..  .................",
"......  .. .  ..................",
".......  . . ...................",
"................................",
"...................... .........",
"......................  ..  ....",
"...................  .. .  .....",
"....................  . . ......",
"................................",
"................................",
"................................",
"................................",
"................................",
"................................",
"................................"
};
