/* XPM */
static char *f410fc7c55614c39b948be5150849a20VYspRKlLG19ss7j3[] = {
/* columns rows colors chars-per-pixel */
"32 32 82 1 ",
"  c #394C1B",
". c #3D521D",
"X c #375225",
"o c #395121",
"O c #3C5522",
"+ c #3D5724",
"@ c #3B5826",
"# c #33532A",
"$ c #37582B",
"% c #39592B",
"& c #3E5D2B",
"* c #3F5E2B",
"= c #3B5E2F",
"- c #3D5F2E",
"; c #3E602E",
": c #42561E",
"> c #455A1F",
", c #485D1E",
"< c #4E6618",
"1 c #4C611F",
"2 c #445C22",
"3 c #405926",
"4 c #425C27",
"5 c #445D25",
"6 c #495D23",
"7 c #405E2B",
"8 c #446027",
"9 c #496023",
"0 c #4D6322",
"q c #4F6621",
"w c #4A6227",
"e c #496626",
"r c #4D6726",
"t c #43622B",
"y c #40612E",
"u c #4B6228",
"i c #48672C",
"p c #47682F",
"a c #4B6B2F",
"s c #4D692C",
"d c #526626",
"f c #536A22",
"g c #546B23",
"h c #516825",
"j c #536E27",
"k c #566D24",
"l c #556D27",
"z c #516D2B",
"x c #577024",
"c c #587024",
"v c #597229",
"b c #59752B",
"n c #5C7428",
"m c #5D7529",
"M c #5F7829",
"N c #436832",
"B c #466831",
"V c #456A33",
"C c #456D35",
"Z c #486C34",
"A c #4B7034",
"S c #4A7135",
"D c #4C7235",
"F c #4E7336",
"G c #4C7538",
"H c #4F7839",
"J c #517130",
"K c #537532",
"L c #507636",
"P c #537937",
"I c #567A35",
"U c #587D36",
"Y c #527938",
"T c #547A38",
"R c #547B38",
"E c #567C38",
"W c #577D39",
"Q c #587E39",
"! c #60792A",
"~ c #5B8037",
"^ c #5C833A",
"/ c #5F853A",
/* pixels */
"cdddd!cccc111111<cc!!ccddd<<<<!!",
"!ccc!11!!m!!!!!cc11ccd<<11!ccc!<",
"ccflm!!19qc!cccc1cc!dccccc1dcc1c",
"ccl9o@7ypJbcc!!cdc!d!c!cc!c<!<c1",
"11cv8$ZQ/~aqcccc!d!cc11ccdcccc<!",
"!!ccl%YLEFI5cdd!ddd1dccdc11!!!!<",
"!!!!c$GYEFU7md!!!!!ccccccccddddd",
"!!c11%FNPWCawg!!ccdddcdddccccccc",
"!!cddwt=C;;F4qlccccccccccccc!!!c",
"cc!!!!l9OXt&Oh!!c1111!!!!!ccccc!",
"cccccccxccq.:,1!<<cccccc111!c<<c",
"ccdddd!!!Mxxddddcc!cc11cc1cc<<cc",
"!ccccdddcc!!cccccc!!!!!!!cc<<!!c",
"!!!!!ccccccccccc<<ccccc<<<cccc<c",
"!!ccccdddd!!!!!ccc!!!!cccc!!!!cc",
"cc!!!!!!!!!!ccccccccc<<<<ccccccc",
"<cc!!ccddd!!!!!!cddddccccc11ccc1",
"c11ccd<<11!ccc!c!cccb ,!!!!!!!!c",
"1cc!dccccc1ddcccccc!M@41q,c!cccc",
"dc!d!c!cc!cccccccc!!12#;z!!cc!!c",
"!d!cc1c11dcccc<!11c!!7NABilccccc",
"ddd1ccccc11!!!!<!!cce;EP/Usdccd!",
"!!!ccccccccddddd!!!M%AHPPIic!d!!",
"ccdddcddddccccccccc14CNEFIegcc!!",
"cccccccccccc!!!c!!cdu-SIYIumlccc",
"c1111!!!!!ccccc!cc!!b2;%B&rcc!!!",
"<<ccccccc11!c<<ccccccl8;CKq01cc!",
"cc!cc11ccccc<<ccccddccm+y30cddcd",
"cc!!!!!!!cc<<!!c!ccccdd6:>!!cccc",
"<<ccccc<<<cccc<c!!!!!cccclcc!!!!",
"cc<<<<<ccc!!!!ccd!ccccdddd!!!!!c",
"ccccc<<<<<<<<<ccdc!!dd!!!!!!ccdd"
};
