/* XPM */
static char *_58958110f4942709fb99cee08fb29cdQiFHnZe6FceWSha8[] = {
/* columns rows colors chars-per-pixel */
"32 32 33 1 ",
"  c #522D17",
". c #56321C",
"X c #57331D",
"o c #593823",
"O c #5C3C28",
"+ c #5E3E29",
"@ c #4E6618",
"# c #4C611F",
"$ c #60432D",
"% c #624530",
"& c #634731",
"* c #634832",
"= c #664834",
"- c #664B35",
"; c #664A36",
": c #526626",
"> c #587024",
", c #60792A",
"< c #696051",
"1 c #6B6253",
"2 c #6B6354",
"3 c #756E60",
"4 c #787263",
"5 c #7B7566",
"6 c #878272",
"7 c #888374",
"8 c #898374",
"9 c #8A8576",
"0 c #8B8676",
"q c #8C8676",
"w c #939085",
"e c #959085",
"r c #9B9991",
/* pixels */
">::::,>>>>######@>>,,>>:::@@@@,,",
",>>>,##,,,,,,,,>>##>>:@@##>>>>,@",
">>>,,,,###>,>>>>#>>,:>>>;;-:>>:>",
">>,,###,,,,>>,,>:>,:,>*;886$,@>#",
"##>,,,>>>>>>>>>>,:,>%%8q7777$>@>",
",,>>>:::>>:>>::,:::%68qqq7778+,@",
",,,,>>>>>>>>,:,,,,,$2qqqqqew3$::",
",,>##>>:::>>>>,,>>:+11rrre433$>>",
",,>:::>>>,,,>>>>>>>O<122r5443o,>",
">>,,,,>>>#>>>,,,>##:X<21554X.>>,",
">>>>>>>>>>>####,@@>>>X115  ,>@@>",
">>::::,,,,>>::::>>>>>#.  #>>@@>>",
",>>>>:::>>,,>>>>>>>,,,,,,>>@@,,>",
",,,,,>>>>>>>>>>>@@>>>>>@@@>>>>@>",
",,>>>>::::,,,,,>>>,,,,>>>>,,,,>>",
">>,,,,,,,,,,>>>>>>>>>@@@@>>>>>>>",
"@>>,,>>:::,,,,,,>>:::,>>>>##>>>#",
">##>>:@@##,>>>,>,>>>,##,,,,,,,,>",
"#>>,:>>>>>#::>>>>>>,,,,###>,>>>>",
":>,:,>,>>,>>>>>>>>,,###,,,,>>,,>",
",:,>>#>##:>>>>@,##>,,,>>>>>>>>>>",
":::#>>>>>##,,,,@,,>>>:::>>::>>:,",
",,,>>>>>>>>:::::,,,,>>>>>>>>,:,,",
">>:::>::::>>>>>>>>>##>>>::>>>>,,",
">>>>>>>>>>>>,,,>,,>:::>>>,,,>>>>",
">####,,,,,>>>>>,>>,,,,>>>#>>>,,,",
"@@>>>>>>>##,>@@>>>>>>>>>>>>##>>,",
">>,>>##>>>>>@@>>>>::>>,,,,>>::>:",
">>,,,,,,,>>@@,,>,>>>>:::>>,,>>>>",
"@@>>>>>@@@>>>>@>,,,,,>>>>>>>,,,,",
">>@@@@@>>>,,,,>>:,>>>>::::,,,,,>",
">>>>>@@@@@@@@@>>:>,,::,,,,,,>>::"
};
