/* XPM */
static char *_3c3ebace3264178841b177b2c247b82iXYWVbjZVgpC7v1i[] = {
/* columns rows colors chars-per-pixel */
"32 32 4 1 ",
"  c #5A5A59",
". c #676767",
"X c gray43",
"o c gray54",
/* pixels */
"ooo ooooo ooooo ooooooo oooo ooo",
"XXX XXXXX XXXXX XXXXXXX XXXX XXX",
"XXX XXXXX XXXXX XXXXXXX XXXX XXX",
"... ..... ..... ....... .... ...",
"                                ",
" ooooo oooooo oooooo oooo oooooo",
" XXXXX XXXXXX XXXXXX XXXX XXXXXX",
" XXXXX   XX X XXXXXX XXXX XXXXXX",
" .....   .... ...... .... ......",
"                                ",
"ooo oooooo oooooo oooo ooooo ooo",
"XXX XXXXXX XXXXXX XXXX XXXXX XXX",
"XXX XXXXXX XXXXXX XXXX XXX X XXX",
"... ...... ...... .... ....  ...",
"                                ",
"oooooo ooooooo ooooo oooo ooooo ",
"XXXXXX XXXXXXX XXXXX XXXX XXXXX ",
"XXXXXX XXXXXXX XXXXX XXX  XXXXX ",
"...... ....... ..... .. . ..... ",
"                                ",
"ooo oooooo oooooo ooooo oooo ooo",
"XXX XXXXXX XXXXXX XXXXX XXXX XXX",
"XXX XXXX   XXXXXX XXXXX XXXX XXX",
"... ... .. ...... ..... .... ...",
"                                ",
"ooo oooooo oooooo ooooo oooo ooo",
"XXX XXXXXX XXXXXX XXXXX XXXX XXX",
"XXX XXXX   XXXXXX XXXXX XXXX XXX",
"... ... .. ...... ..... .... ...",
"                                ",
"ooo oooooo oooooo ooooo oooo ooo",
"XXX XXXXXX XXXXXX XXXXX XXXX XXX",
"XXX XXXX   XXXXXX XXXXX XXXX XXX",
"... ... .. ...... ..... .... ...",
"                                "
};
