/* XPM */
static char *_4b9b03615bb4f08bf81415e53252e784JijjKrawzuUCsCX[] = {
/* columns rows colors chars-per-pixel */
"32 32 100 2 ",
"   c #11140E",
".  c #171B0F",
"X  c #171B10",
"o  c #181C10",
"O  c #181D11",
"+  c #181E10",
"@  c #191F12",
"#  c #1A1F12",
"$  c #111318",
"%  c #111418",
"&  c #1A2012",
"*  c #1C2114",
"=  c #192B18",
"-  c #192C18",
";  c #1A2C18",
":  c #1A2C19",
">  c #273017",
",  c #293318",
"<  c #26391C",
"1  c #26391D",
"2  c #263B1C",
"3  c #273B1C",
"4  c #273A1D",
"5  c #2D3819",
"6  c #2E3819",
"7  c #2D381A",
"8  c #2E391B",
"9  c #313C19",
"0  c #323C19",
"q  c #313D1A",
"w  c #411627",
"e  c #491720",
"r  c #4B1922",
"t  c #421729",
"y  c #6E242F",
"u  c #2B431E",
"i  c #2B441E",
"p  c #2D4322",
"a  c #2E4423",
"s  c #314920",
"d  c #324920",
"f  c #334C23",
"g  c #334D23",
"h  c #344D23",
"j  c #344E23",
"k  c #354E23",
"l  c #2E5A2B",
"z  c #2E5A2C",
"x  c #2F5B2C",
"c  c #395125",
"v  c #3A5225",
"b  c #375728",
"n  c #375729",
"m  c #385729",
"M  c #30592A",
"N  c #30592B",
"B  c #375829",
"V  c #37582A",
"C  c #315A2C",
"Z  c #385829",
"A  c #3E5B2A",
"S  c #3E5B2B",
"D  c #3E5C2B",
"F  c #34602E",
"G  c #35602F",
"H  c #35612F",
"J  c #36602E",
"K  c #36612F",
"L  c #3E632F",
"P  c #3F632F",
"I  c #4E6618",
"U  c #4C611F",
"Y  c #40602D",
"T  c #526626",
"R  c #587024",
"E  c #416431",
"W  c #406432",
"Q  c #416432",
"!  c #446F35",
"~  c #447035",
"^  c #477A39",
"/  c #477A3A",
"(  c #487A3A",
")  c #4A793F",
"_  c #60792A",
"`  c #4A7940",
"'  c #4B7A40",
"]  c #4E7D43",
"[  c #507E43",
"{  c #518A42",
"}  c #518B42",
"|  c #528B43",
" . c #538B43",
".. c #6AA051",
"X. c #6BA052",
"o. c #77AD5C",
"O. c #77AE5D",
"+. c #78AE5D",
"@. c #A2D077",
"#. c #A3D178",
/* pixels */
"R T T T T _ c A R R T U U U U U I R R _ _ R R T Y v I I I I R _ ",
"_ R R R _ c @._ _ R R _ _ _ _ R R U U R R T I I Y @.v R R R _ I ",
"R R R _ c D +.o.Y T R R R Y Y R U R R _ T R R D +.+.D v R R R R ",
"R R _ _ D +.....+.Y _ R C #.A R T R _ T R R D o.....+.D R I R T ",
"T T R _ c Z { { Z L D R D +.o.D _ T _ R R D P B | { n c R R I _ ",
"R _ R j D +.J J O.D T D +.....+.A T T T T R D o.C G o.S s R _ I ",
"R _ R j D / / {  ./ j c Z  .} Z Y A R R R k ^ }  .( ( S f T R T ",
"_ _ R s D J J Y L H C D +.H N o.D i T T k J J P E H G S s R R R ",
"_ _ k k ] ] L J L P ' D / / } { ( j u j ] ' L L J L ] [ j j R R ",
"R c j x C B { ' ' { B D J J L E K C j C z m | ' ' { Z C C j c _ ",
"R R i E E B Z C C m j ] [ L J L E ' ] j ! n B C l m B P E i s R ",
"R R i j j ~ #.E ! E N l Z { ' ' } Z C m z ! E ~ @.W ~ N C i p R ",
"R : i 3 3 j +.+.n i W n n n N N Z Z ~ j a n A o.o.A m n j 2 = = ",
"_ : ; a 3 O.X...+.D a z ! W E ! E ~ C a a S o...X.+.W j 2 =   R ",
"_ _ * : i B {  .n L j p Z m z m z Z a j a a m | { Z W 2 = * R R ",
"R R _ * D o.C J o.D 2 j a a a a a a j 3 2 D o.H J +.A # # R R R ",
"I R R R D ( / {  .( j 4 j j j s j j 2 1 c / { { / / D . R R R U ",
"R U T R D J N W E K C f 2 2 2 2 2 2 = f C H L W K C D w _ _ _ R ",
"U R j j ] ] L J Y L ' [ j = = ; = = j [ ' E E C Y [ ] j j R R R ",
"T j j C C B | ' ' } m C C f w t $ f N N n | ' ' } Z N N j j _ R ",
"_ . i E E B Z C z Z m ~ j $ t w t $ j ! m n C C m m W W u # R R ",
"T # a a C ~ E E ~ E ! z p p w $ $ a a z ! L ~ E E ! z a i 6 T R ",
"R 3 i j a Z Z z m z m p s j = $ = j s a m C n z m n a j s ; ; _ ",
"R 3 3 3 j a a a p p p j 2 2 = = = 4 4 j a a a a a a j 2 ; ; * _ ",
"R 8 # ; 3 k d k s j j 2 = * # # * 4 = 2 f f f j j j 2 = # # R R ",
"R T > # ; 3 3 3 2 2 2 = # # # # # # * = 2 1 2 1 2 2 = O 7 9 _ R ",
"I I R u # ; = = = ; = # # # # # # # # # = = = = = = # , T R R _ ",
"R R R R 6 . . e r # # # # > 7 7 8 8 X X # # e e # # 6 R T T R R ",
"R R _ _ 0 # # e y y # , , 9 9 7 9 8 7 9 # y y e # # q _ R R R R ",
"I I R R 6 # e y X # e 7 7 R I R _ _ 9 9 e # # y r # 8 R R _ _ _ ",
"R R I I I , e # 7 7 9 _ _ _ R R T _ R R 8 8 q * e , _ _ _ _ _ R ",
"R R R R R I I I I I I I I I R R T R _ _ T T _ _ R R _ _ R R T T "
};
